<?xml version="1.0" encoding="utf-8"?>
<!-- Generator: Adobe Illustrator 24.2.3, SVG Export Plug-In . SVG Version: 6.00 Build 0)  -->
<svg version="1.1" id="Calque_1" xmlns="http://www.w3.org/2000/svg" xmlns:xlink="http://www.w3.org/1999/xlink" x="0px" y="0px"
	 viewBox="0 0 200 100" enable-background="new 0 0 200 100" xml:space="preserve">
<path d="M181.5,49.7c0,0-11,21.8-48,17.8l6,13.1c-21,2.7-42-3.3-42-3.3l5,16.2c-24-1-41-12-41-12l5,14c-10,0-41-3-65-46
	c24-43,55-46,65-46l-5,14c0,0,17-11,41-12l-5,16.2c0,0,21-6,42-3.3l-6,13.1C167.8,27.6,181.3,49.7,181.5,49.7z"/>
</svg>
