<svg xmlns="http://www.w3.org/2000/svg" viewBox="0 0 126.81 115.12"><defs><style>.cls-1{fill:#080404;}</style></defs><title>Fichier 6</title><g id="Calque_2" data-name="Calque 2"><g id="Calque_1-2" data-name="Calque 1"><path class="cls-1" d="M102.87,11.55C80.57-1.26,57-4.91,34,8.3c-7.21,4.13-15.34,12.63-15.34,12.63C13.38,26.31,2.85,40.82.91,55.37,0,58.84,0,67.44,0,71.18c0,24.27,20.35,43.94,45.46,43.94S90.91,95.45,90.91,71.18c0-.18,0-.36,0-.54s.07-.38.1-.57c-.07-1-.18-2-.29-3A42.34,42.34,0,0,0,89.9,62c-2-9.9-6.43-18.66-14.78-25.41-7.34-5.92-2.78-8.1,2.73-9.8C91.8,22.47,105.53,24.2,119,29c2.53.89,5,1.58,7.78,1C124.56,27.11,111.62,16.58,102.87,11.55Z"/></g></g></svg>